<svg width="100" height="100" viewBox="0 0 100 100" fill="none" xmlns="http://www.w3.org/2000/svg">
    <path
        d="M50 87.4999C41.875 87.4999 34.9826 84.67 29.3229 79.0103C23.6632 73.3506 20.8333 66.4582 20.8333 58.3332C20.8333 51.8055 22.7604 45.9548 26.6146 40.7812C30.4687 35.6075 35.5208 32.118 41.7708 30.3124C40.3819 29.9652 39.0278 29.4617 37.7083 28.802C36.3889 28.1423 35.2083 27.2916 34.1666 26.2499C31.875 23.9582 30.3993 21.2325 29.7396 18.0728C29.0798 14.9131 28.9236 11.7013 29.2708 8.43741C32.5347 8.09019 35.7465 8.24644 38.9062 8.90616C42.066 9.56588 44.7916 11.0416 47.0833 13.3332C48.6805 14.9305 49.8437 16.736 50.5729 18.7499C51.3021 20.7638 51.7708 22.8819 51.9791 25.1041C52.8819 22.9513 53.9757 20.92 55.2604 19.0103C56.5451 17.1006 57.9861 15.3471 59.5833 13.7499C60.3472 12.986 61.3194 12.6041 62.5 12.6041C63.6805 12.6041 64.6528 12.986 65.4166 13.7499C66.1805 14.5138 66.5625 15.486 66.5625 16.6666C66.5625 17.8471 66.1805 18.8194 65.4166 19.5832C63.8889 21.111 62.5347 22.795 61.3541 24.6353C60.1736 26.4756 59.3055 28.4374 58.75 30.5207C64.8611 32.4652 69.7916 35.9895 73.5416 41.0937C77.2916 46.1978 79.1666 51.9444 79.1666 58.3332C79.1666 66.4582 76.3368 73.3506 70.6771 79.0103C65.0173 84.67 58.125 87.4999 50 87.4999ZM50 79.1666C55.7639 79.1666 60.6771 77.1353 64.7396 73.0728C68.8021 69.0103 70.8333 64.0971 70.8333 58.3332C70.8333 52.5694 68.8021 47.6562 64.7396 43.5937C60.6771 39.5312 55.7639 37.4999 50 37.4999C44.2361 37.4999 39.3229 39.5312 35.2604 43.5937C31.1979 47.6562 29.1666 52.5694 29.1666 58.3332C29.1666 64.0971 31.1979 69.0103 35.2604 73.0728C39.3229 77.1353 44.2361 79.1666 50 79.1666Z"
        fill="#3C6040" />
</svg>