<svg width="100" height="100" viewBox="0 0 800 800" fill="none" xmlns="http://www.w3.org/2000/svg">
    <g clip-path="url(#clip0_120_35)">
        <path
            d="M421.068 487.8C397.053 487.8 377.509 507.343 377.509 531.359H406.548C406.548 523.344 413.068 516.839 421.068 516.839C429.068 516.839 435.588 523.344 435.588 531.359H464.627C464.627 507.343 445.083 487.8 421.068 487.8Z"
            fill="#3C6040" />
        <path
            d="M537.225 502.32C513.209 502.32 493.666 521.863 493.666 545.878H522.705C522.705 537.864 529.224 531.359 537.225 531.359C545.225 531.359 551.744 537.864 551.744 545.878H580.783C580.783 521.863 561.24 502.32 537.225 502.32Z"
            fill="#3C6040" />
        <path
            d="M646.339 447.116L696.446 259.233C696.78 258.013 696.94 256.75 696.94 255.487C696.94 239.471 683.916 226.447 667.901 226.447H638.862C633.562 226.447 628.625 227.957 624.342 230.44V23.1733C624.342 15.1439 617.837 8.65369 609.823 8.65369H159.803C151.788 8.65369 145.283 15.1439 145.283 23.1733V734.633C145.283 742.662 151.788 749.152 159.803 749.152H382.155C424.233 775.723 473.89 791.346 527.235 791.346C677.629 791.346 800 668.99 800 518.596V517.086C800 473.745 710.356 454.986 646.339 447.116ZM638.862 255.487H667.393L613.946 455.929V455.958C613.946 455.987 613.932 456.002 613.932 456.002L605.278 489.237C603.26 496.991 607.906 504.919 615.674 506.951C616.894 507.256 618.128 507.416 619.333 507.416C625.78 507.416 631.674 503.089 633.373 496.555L638.847 475.531C737.958 487.219 770.961 510.16 770.961 517.1C770.961 531.388 688.039 564.913 527.235 564.913C366.431 564.913 283.509 531.388 283.509 517.1C283.509 502.799 366.431 469.273 527.235 469.273C535.831 469.273 544.063 469.607 552.427 469.825L549.711 480.627C547.751 488.41 552.47 496.294 560.253 498.254C561.443 498.559 562.634 498.69 563.81 498.69C570.3 498.69 576.21 494.29 577.879 487.713L584.994 459.458L638.383 259.233C638.702 258.013 638.862 256.75 638.862 255.487ZM513.151 229.758H566.264V282.871C566.264 325.703 531.533 360.434 488.7 360.434H435.587V307.322C435.587 264.474 470.318 229.758 513.151 229.758ZM339.845 147.853L377.408 110.291L414.97 147.853C445.258 178.141 445.258 227.246 414.97 257.534L377.408 295.096L339.845 257.534C309.543 227.246 309.543 178.141 339.845 147.853ZM203.274 282.871V229.758H256.387C299.22 229.758 333.95 264.474 333.95 307.322V360.434H280.838C238.005 360.434 203.274 325.703 203.274 282.871ZM527.235 762.307C477.607 762.307 431.449 747.323 392.9 721.754C391.056 720.534 389.285 719.228 387.484 717.964C383.332 715.046 379.252 712.011 375.288 708.846C373.85 707.699 372.369 706.581 370.961 705.39C365.792 701.064 360.797 696.533 356.02 691.8C355.135 690.914 354.278 690.014 353.407 689.114C348.688 684.308 344.129 679.357 339.831 674.173C339.57 673.868 339.294 673.563 339.047 673.259C334.401 667.61 330.03 661.745 325.907 655.69C325.413 654.964 324.919 654.223 324.44 653.483C316.382 641.403 309.398 628.567 303.561 615.108C303.082 613.99 302.588 612.872 302.124 611.754C299.394 605.205 296.911 598.512 294.762 591.688C294.486 590.831 294.268 589.945 294.007 589.089C292.12 582.889 290.508 576.558 289.128 570.155C288.853 568.877 288.533 567.614 288.272 566.322C287.604 562.997 287.255 559.585 286.718 556.216C342.473 585.168 457.672 593.924 527.221 593.924C596.784 593.924 711.968 585.168 767.723 556.216C749.559 672.765 648.808 762.307 527.235 762.307Z"
            fill="#3C6040" />
        <path
            d="M115.808 8.65369H14.5196C6.50477 8.65369 0 15.1439 0 23.1733V691.074C0 696.867 3.45566 702.124 8.78435 704.418L110.073 747.976C111.902 748.76 113.863 749.152 115.808 749.152C118.596 749.152 121.384 748.339 123.794 746.757C127.874 744.071 130.328 739.511 130.328 734.633V23.1733C130.328 15.1439 123.823 8.65369 115.808 8.65369Z"
            fill="#3C6040" />
    </g>
    <defs>
        <clipPath id="clip0_120_35">
            <rect width="800" height="800" fill="white" />
        </clipPath>
    </defs>
</svg>