<svg width="100" height="100" viewBox="0 0 800 800" fill="none" xmlns="http://www.w3.org/2000/svg">
    <path fill-rule="evenodd" clip-rule="evenodd"
        d="M300 66.6667C281.591 66.6667 266.667 81.5907 266.667 100C266.667 118.409 281.591 133.333 300 133.333V219.526L239.052 280.474C214.048 305.479 200 339.393 200 374.753V600C200 673.637 259.695 733.333 333.333 733.333H466.667C540.303 733.333 600 673.637 600 600V374.753C600 339.393 585.953 305.479 560.947 280.474L500 219.526V133.333C518.41 133.333 533.333 118.409 533.333 100C533.333 81.5907 518.41 66.6667 500 66.6667H300ZM433.333 133.333H366.667V219.526C366.667 237.207 359.643 254.164 347.14 266.667L286.193 327.614C273.69 340.117 266.667 357.073 266.667 374.753V600C266.667 636.82 296.514 666.667 333.333 666.667H466.667C503.487 666.667 533.333 636.82 533.333 600V374.753C533.333 357.073 526.31 340.117 513.807 327.614L452.86 266.667C440.357 254.164 433.333 237.207 433.333 219.526V133.333Z"
        fill="#3C6040" />
</svg>