<svg width="100" height="100" viewBox="0 0 800 800" fill="none" xmlns="http://www.w3.org/2000/svg">
    <path fill-rule="evenodd" clip-rule="evenodd"
        d="M559.147 189.813C557.877 186.849 556.553 185.328 552.293 181.07C542.53 171.307 526.703 171.307 516.94 181.07C507.177 190.833 507.177 206.662 516.94 216.425L534.617 234.103L479.79 288.928C486.693 293.492 493.213 298.766 499.26 304.814C505.31 310.862 510.583 317.382 515.147 324.284L569.973 269.458L587.65 287.136C597.413 296.899 613.243 296.899 623.003 287.136C632.767 277.373 632.767 261.544 623.003 251.781C618.747 247.523 617.227 246.198 614.26 244.928C610.797 243.443 603.48 241.425 587.65 241.425H562.65V216.425C562.65 200.596 560.633 193.28 559.147 189.813ZM535.68 374.46C542.677 406.823 540.783 442.117 534.127 474.743C521.913 534.607 491.993 594.923 455.87 631.047C381.103 705.813 258.031 699.98 181.063 623.013C104.095 546.043 98.2614 422.97 173.028 348.203C209.15 312.082 269.467 282.161 329.331 269.947C361.96 263.291 397.25 261.397 429.617 268.393L466.923 231.085C453.607 203.207 458.493 168.806 481.583 145.715C510.873 116.425 558.36 116.425 587.65 145.715C587.767 145.833 587.887 145.952 588.01 146.074C592.617 150.676 599.883 157.935 605.103 170.117C607.947 176.751 609.953 184.234 611.177 192.897C619.84 194.123 627.323 196.128 633.957 198.971C646.14 204.192 653.4 211.459 658 216.066C658.123 216.188 658.243 216.307 658.36 216.425C687.65 245.715 687.65 293.202 658.36 322.491C635.27 345.583 600.867 350.47 572.99 337.15L535.68 374.46ZM339.327 318.938C286.914 329.631 236.165 355.777 208.383 383.56C155.341 436.6 156.703 527.94 216.418 587.657C276.134 647.373 367.473 648.733 420.517 595.693C448.297 567.91 474.443 517.16 485.137 464.75C496.02 411.407 489.277 365.54 463.907 340.17C438.533 314.797 392.67 308.056 339.327 318.938Z"
        fill="#3C6040" />
</svg>