<svg width="100" height="100" viewBox="0 0 800 800" fill="none" xmlns="http://www.w3.org/2000/svg">
    <g clip-path="url(#clip0_120_68)">
        <path
            d="M773.939 425.682C746.675 379.169 704.315 351.498 660.48 351.498C660.208 351.498 659.917 351.498 659.645 351.498C625.105 350.954 601.683 343.522 589.206 326.99C576.729 310.457 576.923 288.122 578.727 273.879H641.521C672.996 273.879 698.591 248.284 698.591 216.809V156.305C698.591 124.831 672.996 99.236 641.521 99.236H154.132C122.657 99.236 97.0624 124.831 97.0624 156.305V216.79C97.0624 248.265 122.657 273.859 154.132 273.859H221.253C223.038 288.064 223.232 310.36 210.91 326.815C198.433 343.464 173.789 351.828 140.354 351.478C95.8787 350.954 53.4987 378.878 26.041 425.682C-6.67544 481.51 -8.73234 548.184 20.6853 599.685C45.9891 643.986 105.135 696.456 242.191 700.376C244.907 700.492 247.352 700.764 250.263 700.764H256.628H522.589H543.411C690.945 700.318 753.118 645.538 779.295 599.685C808.713 548.204 806.656 481.529 773.939 425.682ZM154.132 235.069C144.041 235.069 135.872 226.88 135.872 216.809V156.305C135.872 146.215 144.061 138.045 154.132 138.045H641.521C651.612 138.045 659.781 146.234 659.781 156.305V216.79C659.781 226.88 651.592 235.05 641.521 235.05H588.934H211.085H154.132V235.069ZM256.705 661.974C250.632 661.955 244.907 661.741 239.183 661.547C219.7 660.13 206.078 654.949 202.042 647.052C197.909 638.96 202.45 624.484 214.151 608.339C230.994 585.092 252.921 546.244 274.131 508.676C294.467 472.661 315.482 435.423 330.599 414.466C350.353 387.125 375.365 371.659 401.019 370.941C401.639 370.941 402.26 370.922 402.901 370.922C428.108 370.922 453.431 385.087 474.446 411.032C488.747 428.671 509.511 462.493 529.594 495.209C550.746 529.653 572.615 565.299 589.225 585.868C597.919 596.658 611.405 617.168 603.585 633.488C595.182 651.068 564.174 661.993 522.628 661.993H256.705V661.974ZM745.608 580.455C730.667 606.612 699.988 636.282 637.718 651.592C637.97 651.107 638.358 650.68 638.591 650.176C645.868 634.943 653.047 603.119 619.361 561.438C604.342 542.848 583.132 508.308 562.621 474.873C540.946 439.576 520.474 406.2 504.582 386.562C476.037 351.343 440.041 332.074 402.92 332.074C401.931 332.074 400.922 332.093 399.932 332.112C361.918 333.18 326.097 354.35 299.144 391.704C282.747 414.427 262.139 450.928 240.328 489.563C219.662 526.199 198.278 564.077 182.734 585.519C165.581 609.174 159.002 632.149 163.155 651.767C100.322 636.515 69.43 606.69 54.4301 580.435C27.4769 533.243 39.4303 479.686 59.5724 445.281C79.7922 410.799 109.656 390.269 139.559 390.269C140.296 390.269 141.208 390.269 142.043 390.269C188.42 390.269 222.029 376.763 242.016 350.062C260.683 325.127 262.255 294.778 260.334 273.84H539.704C537.783 294.778 539.355 325.127 558.022 350.062C578.009 376.763 611.638 390.269 657.996 390.269C658.83 390.269 659.723 390.288 660.48 390.269C690.382 390.269 720.246 410.799 740.447 445.281C760.608 479.705 772.561 533.282 745.608 580.455Z"
            fill="#3C6040" />
        <path
            d="M411.866 467.926C422.583 467.926 431.27 459.239 431.27 448.522C431.27 437.805 422.583 429.117 411.866 429.117C401.149 429.117 392.461 437.805 392.461 448.522C392.461 459.239 401.149 467.926 411.866 467.926Z"
            fill="#3C6040" />
        <path
            d="M353.651 526.141C364.368 526.141 373.056 517.453 373.056 506.736C373.056 496.019 364.368 487.331 353.651 487.331C342.934 487.331 334.247 496.019 334.247 506.736C334.247 517.453 342.934 526.141 353.651 526.141Z"
            fill="#3C6040" />
        <path
            d="M450.675 564.95C461.392 564.95 470.08 556.262 470.08 545.545C470.08 534.828 461.392 526.141 450.675 526.141C439.958 526.141 431.271 534.828 431.271 545.545C431.271 556.262 439.958 564.95 450.675 564.95Z"
            fill="#3C6040" />
    </g>
    <defs>
        <clipPath id="clip0_120_68">
            <rect width="800" height="800" fill="white" />
        </clipPath>
    </defs>
</svg>