<svg width="100" height="100" viewBox="0 0 800 800" fill="none" xmlns="http://www.w3.org/2000/svg">
    <path
        d="M740.641 139.534L427.931 5.73906C419.086 1.92969 409.689 0 400 0C390.326 0 380.945 1.92969 372.069 5.73906L59.3607 139.534C33.2045 150.723 16.292 176.344 16.292 204.811V595.206C16.292 623.659 33.2045 649.278 59.3607 660.483L372.084 794.277C380.961 798.072 390.342 800 400 800C409.656 800 419.04 798.072 427.931 794.277L740.641 660.483C766.795 649.278 783.708 623.659 783.708 595.206V204.809C783.708 176.344 766.795 150.722 740.641 139.534ZM64.1045 595.206V204.809C64.1045 202.758 64.3795 200.722 64.9467 198.717L386.486 336.292V748.453L78.1842 616.542C69.6295 612.884 64.1045 604.497 64.1045 595.206ZM721.815 616.542L413.53 748.453V336.294L735.055 198.719C735.622 200.723 735.895 202.759 735.895 204.811V595.206C735.895 604.497 730.37 612.884 721.815 616.542ZM400 47.8125C403.153 47.8125 406.23 48.4391 409.106 49.6797L711.881 179.22L400 312.663L88.117 179.22L390.878 49.6797C393.772 48.4391 396.847 47.8125 400 47.8125Z"
        fill="#3C6040" />
</svg>