<svg width="100" height="100" viewBox="0 0 800 800" fill="none" xmlns="http://www.w3.org/2000/svg">
    <path
        d="M799.811 292.664C797.955 275.969 782.925 263.938 766.219 265.792L698.411 273.328L756.864 214.873C768.741 202.994 768.741 183.736 756.864 171.856C744.984 159.98 725.727 159.98 713.847 171.856L655.395 230.309L662.927 162.503C664.783 145.806 652.75 130.767 636.053 128.914C619.358 127.069 604.317 139.092 602.461 155.788L591.717 252.5C572.653 241.219 551.719 235.18 530.534 235.18C525.98 235.18 521.48 235.461 517.039 235.984C479.039 176.823 412.472 145.114 322.708 143.725L338.008 104.356C344.094 88.6969 336.333 71.0703 320.673 64.9859C305.019 58.9016 287.388 66.6609 281.302 82.3203L257.133 144.503C250.434 143.939 243.734 143.652 237.073 143.652C84.1969 143.653 0 227.619 0 380.086C0 452.523 27.7953 521.023 78.2656 572.964C117.073 612.903 166.037 639.719 219.462 650.937L195.811 691.286C188.811 703.228 190.755 718.391 200.544 728.177C206.405 734.039 214.191 737.087 222.061 737.087C227.333 737.087 232.642 735.719 237.434 732.909L629.256 503.225C664.809 482.386 687.906 449.322 692.63 412.513C695.937 386.727 690.023 360.455 676.188 337.006L772.939 326.255C789.636 324.4 801.667 309.362 799.811 292.664ZM60.8359 380.086C60.8359 279.891 102.309 223.377 187.225 208.503L176.112 217.069C162.806 227.323 160.334 246.423 170.589 259.731C176.581 267.506 185.591 271.583 194.705 271.583C201.186 271.583 207.722 269.519 213.252 265.256L246.394 239.713V272.311C246.394 289.109 260.013 302.73 276.813 302.73C293.613 302.73 307.231 289.111 307.231 272.311V239.713L340.373 265.256C345.905 269.519 352.437 271.583 358.92 271.583C368.031 271.583 377.044 267.506 383.036 259.731C393.291 246.425 390.817 227.327 377.513 217.069L366.563 208.628C407.544 215.983 438.634 233.155 459.513 259.977C446.388 270.253 434.853 283.528 425.511 299.467L252.434 594.7C143.663 582.677 60.8359 491.586 60.8359 380.086ZM632.288 404.77C630.641 417.606 624.191 429.486 613.745 439.378L547.913 373.544C536.033 361.667 516.775 361.664 504.895 373.542C493.016 385.422 493.016 404.68 504.894 416.559L561.033 472.702L307.264 621.462L392.791 475.566L403.569 486.344C409.508 492.283 417.294 495.255 425.078 495.255C432.861 495.255 440.648 492.284 446.588 486.347C458.467 474.467 458.467 455.209 446.588 443.33L424.587 421.328L477.987 330.236C490.734 308.494 509.888 296.022 530.539 296.022C546.838 296.022 562.892 303.463 576.969 317.538L611.189 351.758C627.134 367.7 634.628 386.528 632.288 404.77Z"
        fill="#3C6040" />
</svg>